<svg width="101" height="40" viewBox="0 0 101 40" fill="none" xmlns="http://www.w3.org/2000/svg">
<g id="Group 55" opacity="0.9">
<path id="Vector" d="M29.1405 25.3705C29.1537 25.3828 29.1739 25.3814 29.1855 25.369C29.205 25.3482 29.204 25.3152 29.1831 25.2957C29.1491 25.2638 29.0967 25.2655 29.0648 25.2995C29.0133 25.3544 29.0161 25.4397 29.071 25.4912C29.1591 25.5738 29.2984 25.5693 29.381 25.4812C29.515 25.3382 29.5078 25.1135 29.3648 24.9795C29.1337 24.7628 28.7698 24.7746 28.5531 25.0057C28.2024 25.3798 28.2214 25.9683 28.5955 26.319C29.2015 26.8871 30.1532 26.8556 30.7205 26.2504C31.6393 25.2703 31.5895 23.7294 30.6094 22.8106C29.0241 21.3245 26.5307 21.405 25.0446 22.9903C22.6397 25.5557 22.77 29.59 25.3354 31.9949C29.4868 35.8867 36.0138 35.6752 39.9049 31.5245C46.2015 24.8076 45.8598 14.2463 39.1437 7.95033C28.2761 -2.23739 11.1877 -1.68562 1 9.18197" stroke="#3C1913" stroke-opacity="0.5" stroke-miterlimit="10"/>
<path id="Vector_2" d="M71.6199 25.3705C71.6068 25.3828 71.5866 25.3814 71.575 25.369C71.5555 25.3482 71.5565 25.3152 71.5774 25.2957C71.6114 25.2638 71.6638 25.2655 71.6957 25.2995C71.7471 25.3544 71.7444 25.4397 71.6895 25.4912C71.6014 25.5738 71.4621 25.5693 71.3795 25.4812C71.2455 25.3382 71.2527 25.1135 71.3957 24.9795C71.6268 24.7628 71.9907 24.7746 72.2074 25.0057C72.5581 25.3798 72.5391 25.9683 72.165 26.319C71.559 26.8871 70.6073 26.8556 70.04 26.2504C69.1212 25.2703 69.1709 23.7294 70.151 22.8106C71.7363 21.3245 74.2297 21.405 75.7159 22.9903C78.1208 25.5557 77.9905 29.59 75.4251 31.9949C71.2736 35.8867 64.7467 35.6752 60.8556 31.5245C54.5589 24.8076 54.9007 14.2463 61.6168 7.95033C72.4844 -2.23739 89.5728 -1.68562 99.7605 9.18197" stroke="#3C1913" stroke-opacity="0.5" stroke-miterlimit="10"/>
<g id="Group 26">
<path id="Vector 11" d="M24.3714 26.2955C18.6169 27.6184 15.1431 26.1092 11.6691 19.1614C7.5269 10.8772 2.00433 12.5339 1.17592 8.66814C0.347503 4.80241 2.00433 1.7645 15.8112 0.659943C29.6181 -0.44461 50.3285 8.66173 50.3285 16.1286L50.1526 13.823L46.5628 3.60588M24.3714 26.2955C25.4782 26.0411 26.6694 25.6819 27.9612 25.2364C34.3676 23.0273 45.5421 18.2409 50.3285 16.1239C47.0148 20.1739 40.3322 29.8203 40.1113 36.0058C39.8352 43.7377 18.5725 32.049 24.3714 26.2955Z" stroke="#3C1913"/>
<path id="Vector 12" d="M76.109 26.2955C81.8636 27.6184 85.3374 26.1092 88.8114 19.1614C92.9536 10.8772 98.4761 12.5339 99.3046 8.66814C100.133 4.80241 98.4761 1.7645 84.6692 0.659943C70.8623 -0.44461 50.152 8.66173 50.152 16.1286L50.3279 13.823L53.9177 3.60588M76.109 26.2955C75.0022 26.0411 73.811 25.6819 72.5192 25.2364C66.1128 23.0273 54.9384 18.2409 50.152 16.1239C53.4656 20.1739 60.1483 29.8203 60.3692 36.0058C60.6453 43.7377 81.9079 32.049 76.109 26.2955Z" stroke="#3C1913"/>
</g>
</g>
</svg>
